<svg width="32" height="32" viewBox="0 0 32 32" xmlns="http://www.w3.org/2000/svg">
  <defs>
    <linearGradient id="faviconGrad" x1="0%" y1="0%" x2="100%" y2="100%">
      <stop offset="0%" style="stop-color:#FF6B35"/>
      <stop offset="100%" style="stop-color:#F7931E"/>
    </linearGradient>
  </defs>
  
  <!-- Background -->
  <rect width="32" height="32" rx="6" fill="url(#faviconGrad)"/>
  
  <!-- Trophy icon -->
  <g transform="translate(6, 6) scale(0.8)">
    <path d="M4 4C4 3.4 4.4 3 5 3h11c.6 0 1 .4 1 1v7c0 1.7-1.3 3-3 3H7c-1.7 0-3-1.3-3-3V4z" fill="#fff"/>
    <rect x="8" y="14" width="3" height="2" fill="#fff"/>
    <rect x="6" y="16" width="7" height="2" rx="1" fill="#fff"/>
    <path d="M10 7l.3.7.9 0-.5.4.2.8-.7-.4-.7.4.2-.8-.5-.4.9 0L10 7z" fill="url(#faviconGrad)"/>
  </g>
</svg>
