<svg width="180" height="50" viewBox="0 0 180 50" xmlns="http://www.w3.org/2000/svg">
  <defs>
    <linearGradient id="grad" x1="0%" y1="0%" x2="100%" y2="0%">
      <stop offset="0%" style="stop-color:#FF6B35"/>
      <stop offset="100%" style="stop-color:#F7931E"/>
    </linearGradient>
  </defs>
  
  <!-- Trophy -->
  <g transform="translate(5, 8)">
    <path d="M6 4C6 2.9 6.9 2 8 2h12c1.1 0 2 .9 2 2v8c0 2.2-1.8 4-4 4H10c-2.2 0-4-1.8-4-4V4z" fill="url(#grad)"/>
    <rect x="12" y="14" width="4" height="3" fill="url(#grad)"/>
    <rect x="10" y="17" width="8" height="2" rx="1" fill="url(#grad)"/>
    <path d="M14 6l.5 1 1.5 0-.8.7.3 1.3-1-.7-1 .7.3-1.3-.8-.7 1.5 0L14 6z" fill="#fff"/>
  </g>
  
  <!-- Text -->
  <text x="40" y="22" font-family="Arial" font-size="16" font-weight="bold" fill="#1e293b">BANKASS</text>
  <text x="40" y="35" font-family="Arial" font-size="11" fill="#64748b">AWARDS</text>
  <line x1="40" y1="38" x2="90" y2="38" stroke="url(#grad)" stroke-width="2"/>
</svg>
